/* XPM */
static char * uwe_xpm[] = {
"100 100 10 1",
" 	c #AAAAAA",
".	c #C6C6C6",
"+	c #E3E3E3",
"@	c #8E8E8E",
"#	c #FFFFFF",
"$	c #717171",
"%	c #555555",
"&	c #393939",
"*	c #1C1C1C",
"=	c #000000",
" .+.@.+.++.+ +.....++.++.++++++++..#++#++++.#+++++++#.+++.+++++++  ...++.+  .. .@.. $ @.@    ..+++  ",
" ++..+  .. .+.+..#++.++.+@..+++.++#+++++++++++++++#.+++++++.+.+..++..++.. .. ..+ . . @  . ..   @  + ",
"+#+...+.+.+++.++.+.++.+++++++.++.+. . ... .....+.++++.+++++++.+.++.. ...  ...@+ +.... ...+ +  .  ..+",
"+++.++.++.. ++..+.+++++#++++#++++.  @%@ . @ . @ .. ..++#++.++++.++.++#. .+.+....+. ...+.@...... .@..",
".+..+...++.+.++#++.+#+..++#+#++..@  +.... .   .   + ..+++++++++++ +.+........+. . ...+     . +. +...",
"+..+++++.++.+.+++++##++#++++.. .@@@@ .  . ..   .  ..... .++++.+++.++++.++.+. +..++..+ ..  . ..+ .. .",
"++.+.+..+++++++...+++#++++#+@. @ $@@@ @. $ .... . . @@.  +#++++++.+.+.+..++.+ .+. . +#.. ...+ .. + .",
"++.+ . ++ ...+.+.+.+++++++.. .   @@@@@ ..@   @ ..  +.. ...++++#.+++.++.+. +....+.....+.... ++ .  ...",
"#+.+++.++++++#+++++++++#++.@. .   @ @.    .  + $@    . @. ...+++.+.+++++++..++..+++.+ . .  +++.. +.+",
".+.+..++..#.+++.+#+++++#+.   $@@ @@$@   +.@... .  @@ . . @.+ .+++.+.+..#++...++.+......@. + ..  .+++",
".++++#++.##+++#++#++#+++..@@$$$$$@@@$@$ .+ ... +  @@ @@@  @   ++++.+++++++.++ .+..+. .....+....... .",
".+.#+++++++++#+++++.+#+..  %$&$%$@$%%$   @.. . .   @.. .@@$ @..+#+++#.++ + .++.+......+.+.. +. .... ",
"+#+++++.++.++++##+#+#+..   $@$ @@  @@@ .@..   .$@@  @  @ $$@$@ .+++++++++..+++..+@++..+..... +. .+..",
"+.....+++##+++++++++++@@@@      .@ ..@.  @@ @@   .$    ..@$$@  .++++++.++++++.+...++.++ ...+.+ +.+++",
"++++++#+#++++++##+##+.@$@$ @.... ... .  @@ $@ . @. $   @@$$@$$@  +#+++++++..+#+++.++++.+++@.. ..+...",
"##++++++++#++++++++#+@%$@%@@@.  $ .. . @  $$ @.  .   $@@$%@@$@$  .+++++.++##+..++.++++.+.+ ..... .++",
".+#+++#++.+###++..#+.%%&&%% @@$&@%$@@$ .    $      @ $@@@$&%&%@@..+++++++#+.#+++++.++#..+..+#.. +..+",
"+#+#+#++++#++++#++++@$%%&@%%%&&*&*%$@  @    @$ @ +$@$@@ @$%$%%@@@$+++++++#++++++++...+ +...+ +++.#..",
"+#.++++++#++++#+..+ %%%$$@%&*&*=*&&$%$@@ ....$@@ $.@$@@@ @@@$%@%%% #.+###++#+++++++#+.+... ..+.+++..",
"#+##++++++#.+#+#.+.&*%@$$***========&&%@ @  @ $$  @$$$$$$$$$&$$&$$ .+#+++++.++.++++#++.++.+....+.++#",
"++++##++++#++#++..$=*%%%%==&==&=*=*==**%$ @ @@$@@  @@$@$@@  @@$%&@+.++.++.++.++++++++++..+.+.+..++..",
"+++++++#++#++++++.$**%$=*==*=%*%*&&**&*&%%%$@ .$@ $@ @ . ... @$@%@+.#+++++++++++.#++++.#+++..+ .+.++",
"++#++++##++#++++++$%%**==*=*&=&&&$$@$%&%%$$@$@%@@   @. .   .  @@$&@.++++#+++++..+.++++..++.++..++.++",
"#+++##++.+++#++++#&%&&=*&=***&$.@.@ @ @%$ @  . @. @&%%$%%&&&&&$ @%& +++++.+++##.+++#.++.+++.+#++...+",
"#+++.+++..#++....+@@&**&%*&*$@%&@%%&@@@@$ $%$%@$%$$ + . .   @@$$@@$.++++++++++ ++#+.++.#+.+.+++#++..",
"#+. ++  +++.+. ...@ $****$%@$&&=*&%&**&%%$@@.... . +..+ .+.  . @$$$ #++##+#+++++.+...#..++++.+...+..",
"#..++#+.   ++@... @$$%**@$$%%&%&&&%%@@@@@. . +  + ....+ . ....  @$&@.+ ##.+#+++++++#++.+.#.#++#+++++",
"++#++++..    $  . %$&%&%%%%@%%%@$ %. $ @ @  ..  .@   . +.  ...+ .@ @++++++++++++++#+++..+++#..+++ ++",
"++++#++.   @@%... @&@&*& %@&%$%@@$@    @@@+    .   .  ..+ . ... ...@@ .+.+#+#+++++++..+++.++.+++.+++",
"+....+.@$@@ @%@.+.&*&==%&&&%@$$$@@@@$@ . .@@@ . .. .  ...... .+ ..@+   ++.++++#.++.+#.++++.+++++++++",
"+.+ .   $$... $ .. %&=& %%@. .@$%$@ $$  . @  .. @ @ .    .+.+ ....  $$%@.++++++.#++++..+#+ +.+++.+.+",
"++++   @@ +. %%%  @ $%&@*%$ .@@$@&$@@$@@@@ @@ .  . ..@ @ . ..   $%&**&**% +++#+++++.+++##.++#+++++++",
"+++#..$@@@$ @%%%&$  @%*&&&&@ @ @$$@@@@@$$ @@.$@@ @@@   @    @@%**&&**====&@+++++#+++++.##+++++++++++",
"+#++. @@ @$%&$&@&&%$$%&*=&& @  @@$$%@  $@@@@$  @@@   . . @@%&*=***&$&====*%@+.+.+.+++.++#++++ ++++#+",
"##+++ @  $ %&%$@%*%@**==**&&*%&&&&%$&$ $@@.@ $@$ $$  @@@%%&**====*&%$&==*=&%.+++ ++#+.+++++++#+.++++",
"#+##+..   $$*%$+.%$@%&=%%%%@@@$$%%%&&*%$@$@$@ @@@@@@@%&*&*==*===*==*=&*=****&+++++.++++++.++# +... @",
"+###+ ..@&%$&@ +++  $$%&*%%$@ @     @$%&&$$$ @  @$$&==**&*&**=======%=*=*&*%% +++.++.++++.+  .@$@@@%",
"+#++ $ .@@@ @@+@ .+ @%%%&$%$ @    @ $$$%&**&&&&%*=====*&%=========*===*&%==%*@..+.++++++.+ $%$%&%%*%",
"+#++$$.  @.+$$@ @ @@%&&&&&@ . .@. @$@&%$&=&**=**=====**&&*%==%===****& .@*=**%..+++++++. @$&%%&&%$$&",
"#+++$% @  @ @%.%.@%%%%@$%%%@   @   @%$% %&%=*&*=====*=*&&*=*===*% . +#+.. &**@+....+++.. $*%%%%*%$%*",
"### %@   @@@%&%%$@@@$$$%@$@@@.@.  @ %$&%%==========*=*%&*&*&&% .####+####. @@+.. @ .  +.@&*&$ @%*&$%",
"#++.&@ ..@$$$&*&%$% @%$@@@@@. .  .@@@$%%%*==*=%*====**&&%&%$ +###+###+++##+....$$$%%%%..%%%&%@@$%&$&",
"+##+$$. @@$$%&&*%$%@+$@$ $@$  @ @ @ @@@%@%*====*==**&$%&%$@ ++++++++++.+#+##.@ $$$&%&*% %@%@$$@@%%%&",
"#+++&@.$$%%&%&**%%$$@@ @ $@ .    @     $$$$%&*=&*%&%%$%@  +#++....     .+++##+.@@%%%%$$@@%$@ @%$$$*%",
"###+@.@%%%*@%%*=**@@   @.@@ @@     + @ @$$%%$$$&%@@@$$$ .+#. .    .+++++++++++#+@@$%$%$%@&%$$$$@%@@$",
"##++.%+@%&***===*=*%%%$$  $@   .    ..@@   @$@%%%%@$@%@...@. @@@ +#+###+##+####+#+.$%&%&%*&$%&&$$%$%",
"#+##.$$@%%&%=&$%@*=*$%$  @@$. .@ @@.$.$.    @@$@$%%%&@@$ @  @$ +###++########++#+#++@%%%&**$*$$*%&%$",
"###+..@%&&=*&&% $&=%%  @ @ . @@@@  .. . @@@@$@$$%%&%@.@%$$$% ++###++++.#++##++#+####+.@%&&*%%&*%@$@$",
"#++..++@&%$%%$@.@$**$$.@ $$ $@@@. .  ....  @$ $$$&&$$ @@ %%.##+###++ ...+.+++++#####++. $&&**$@&*& @",
"#++ @.+$&@%*&%@..%=*@@@.+$  .  . .  . .  ..@  $$&&@   @@@@.++#++...   . ....+.+##+#+##++ %$%%&$$$%&$",
"+#+ @&$$*%$&*%$@%***@@ .@    .@..  ... + @@ @$%%&$ @%$@@@++##.. .  @@ ..     +#####+#+#++.%&&% $$%*%",
"#++ .$%$&**%&%%&*&&**@+@$@.  .. .    ..  .@@ @%$%@@$%%%$.+++..    @@+++++++++#######+##+++.$%%$%&%@$",
"+## @ &&*&%&**==*%$*==**$ . . . @ + . +. +@  @%$@  $$@ ++++   $    +########++###+####++++#+ $$$@&&&",
"#+++... @**%==&**@&&*===%@...  +.  .@   @..@ $$%.$@@@@##++.+  . @+#++###++#++++++++##++#++#+++$$%%&@",
"+###+#+. $&&*=**%@%&====@     @ @. .+ . ..@ @$@@.@@@ +#++.  @$@+##++#+#+. .++++.#++#+++++#+++#+.@$$&",
"+####. @$@$*$=*$%$&***==$@@ .+.  .   . .. @$@ @  @  $+#+. . $@+#+#++ ....@.+.+++++#+##+##++++++++@$&",
"#+####+++. %**&%%%&*$*==% . ..   + . .. . . $@@@.@ .@ +.   $ #+#++++....  ...+.++######++#+++#++++. ",
"##+##++++++ %%&$@%&$$*=*&$ . .+...@+$  .@.@@%@ @     .  @$& ++.+...     @. @  @.++###+#+++++#++#+#++",
"+#+##+##+++ $%$%$@%$%=%=* .  @...   @..    @%@ @@   @@$$$%.+#+. .@@  @ @%%&$@@.++#++++#+++#+#++++++#",
"#######+++. %&%$%@&%*=**&  .@  ..... +. +.$@ $ $$% @@%%%$.+++.  @ @@@%*&**$ +######++++++##+#++#++++",
"+##+#+####.  $%@  %$====*@   . .. ..  + . .@$@@@$&%%@$$@++++..@@   $&&%%.+#####+#++.++.+++##+++#+#++",
"##+######+. %%$@ %&%*=**=@ . ..+ .. .@   .@ @%@@$%&$$@$+#++..@@$$$&$&$.+#+###+++++......++++++++++++",
"###+######+ %%&$$&*&*****@..+.@..@...  @. $$$@ @ $$&%$ #++ @ $$*&&%@+#####+++..+..... ...++++++.++#+",
"########++++$&*%&&*&=*&**$ ...+   @. .   @$   @ @ @@$$  +. @@%&&$@.##+##++.    . ...  . .+ ...++++#+",
"########++#.$&&**=&%&*&*%@@.   . +.+.  .  @$ @@@  .@@%@@  $%%&&$.+##+..+.  @.@@@   @$@    . ...+.+++",
"####+###+##+.%&&*$&%$=*%&    + . ++ ..@.  $%@     @ @@%$$%%&%$.+##+++. .. ...@ $@@@@@%@ $  . .......",
"#++++###+###+%$$$$%@$$&*$@  +...  ..       $% @@@$$@$@$%@$$&@###++.+....    @$@%%@ @@$$ @     ..   +",
"########+###+.$$% .@@@&*%  .  .  .  ..@+ @@@@ $$@$%%&%&$%@$%.+++++.+...@ @@$@@@$%%$@@@$$ @@       . ",
"##############+% .   $&*$@ .+..... .   @.@@ .$$$%$@%*%%$$$ @% ++.. @ $@ @@ @...@@$%@@$@@$   @$@@@@$@",
"+#+####+####+++.. @@$$=*$$@ .+..# .. .  . .  @@@%$%$@$$$@ $ $@  @.$$&&%$   .##++. @      @   @@$$@@@",
"#+###++#####+@@@    $$*&$@ ..+........   @@ . @@@$$$$@@$ +@$ $ $@%@%%@  .++####+++. ++ . @@ @.$$@@$%",
"#######+++++@%@.+  @@@*%%$  ...+....@ ...@. . @$.  @ $   $&@  %$%$%@@   +++####+#+++.##+. @ @. @@ @@",
"+###+. $$@*&%@ . .. . *%$ @  ..   . .  ..++ @   @$ .  .. %%@@@ @$$$@$@..+++++##+++++.####+$$ @.$   @",
". . $ %%&$&*%...+..  $&%$@. . @.. . ... .@  @  $@$@   ..+&  $$ @@%$@@$..+.+++++.+.. ..###+%%&$@ @@  ",
"@$%%%%%&@&**@++. . . %&%$@... . +@ .   @.@   . @@ @. .. @*@.+.$@$$%$ .  .+.++.. @@@@@ +###  . &%*%& ",
"@ $@$*&$%&%@ +++++ . &%&@ @  . @ @ .@@@  ..    @@  @%  .&*% .#$  %%%@. @ . .@@@@@@$@@@+#######+%%&*=",
"%. %@%**&$%@..##+#  @*&@ .  .  ..    . .  . @  $@$@@.. $*** +#+@ @$%@@.+ @@@ @@$@$@ @@+###+####+%***",
".&&&*==$%%&@.+#+.#+ @*@%@  . ..+   @@  .  .@@@$$@$@@@ *&*&*$+##. @@ @@  @$  $@@%@ $%@ ####+#####.%*&",
"$&=*==*$%&@@+##++#+ $=*%$.@.@...   @ . . . @@@@@ @.+.%&*%*$%+###@@$$$$@ @@ @%$$% @$ @.##########+%%&",
"&===*=*$&%$ +#++##. $==&@%  @ . ..@ @  @   @@  @.@ $*&%%&*%% ###+%     @  @@@$ @@@$@.###+#########++",
"*$$$=&=%&%$+######+ $=*&*&$@@@ @+. .        @ @ @&%=&*&&&*%%.+###.@    . @@$$%@$&$ .####+###########",
"%%&*==*@%%$+####### %=**%*&%$$%$ + .. $  $ @@%%**=%**$$&%%% @.####.@.@   $%$$$ $&$@++####+######+###",
" @&==**&@%.+#######.%%=**%&&&&&@&@ @  @$%$%******%=***&&$*&$ @##### $. @ @&@$$$&@ .++###########+###",
"% *=**=@&@..######+.&=&*%&**&***%&&*=*%&&***%*==%&%%&*$$%*$$$@+####+$@$@ $@@$%$@%@ +#####+#####+####",
"%*&=**=%$%+.+#####++%*=%*%%***%&&*&*&&=*&&&%**==*@&%*$&%% $%@@ #####+ $ $@@@@@ @%$@.++#+++#######++#",
"%**=%*%$$.+. +###++#%**%$**%&=*==&$%=====&**&&*$$**=&@&$$*$@%$@+#####.  @. +++$$%&@$+++++.+#+#######",
"$%$*%&$%& ++ @+##+++$=*=*$%*$%%**&*&***=%&*&%*%&=&=&%$$$%$%$&%@+#############+$%$%%$.+.+.+#+#++####+",
"%@%$@@$&$.++@  +++##$&*&$$%*@&&$&$&&$%*&**%%*&*=&=*$$&$$%%%@$@@.##############@$$$%&@.. .+##++.#####",
" $@@.@@$@.+@  ++++##&*%&&*%%%%%%&$*&*%%=*=%=%%=%==%%%$*%%&$$@%  ##############.$@$$@@ .+##+#+#.##++#",
"$$%$@  % +. .++ ++##%*%**&*%$*$=%&&==&==&=%&=&==*%@&%&%&%%$ $%@ +#############+%$&%&% .+#+##+###++#+",
"@%&$$$@@+.+ ..+.####@**=***&&*$*%&*%&*%*&%*%@&**%%$%&$*&&$&$$&% +#########+####$$ %%*$.+++##++#++#+#",
"@&&$ @.@.++.++#+####@&*%$&%**%$*=$**=%*%*%%=%*%&*%*%@$$%&&  $%$@ #####+########.$%%*$@..####+#+++++#",
" %%%$ .+++...+###### &$$*@$%*%*&$&%*%%*&&%&$$$&*$%$$$*$$% $$$$$. +#############+@%%$@@..#+++++++###+",
" $  @ .#++. .+#+###+$$@**%*%*$$$$$*&*&*&&&*%$@&%%$$&%$*%$%@$$*$  ##############+%%@%%@ #+++.++##++.+",
"@%@ @.+##...+#+#####.@&%$$*$%&*$&&@@$&*&&&%*&&$%%$$&%%&&&%&%%&%  .#+##+#########+@$%&@ +#+++..###+.#",
"@*% @+###+...++#####$ %&*%%$*@&&*%$%$&=%%%$*&*$@$$@%&@&$& $$ $% . +########+#####.%@%$ ##+.. +##+++.",
"@$ @.+#### .+#+####+@ .&%%$*&$@$$@%*&&%&%$%%%%*%%**%&&*&&$@ $$$. @+#+############+%@%$.##++ +##+ .+.",
"@@ $.+####..+######+$@ @&&$$$$%&%%$&@%*$&=%@$&$$%%&*=%*&&$&$%%%..@ ######+##++#### &%% #+.. ++ .++ +",
"%@  .+###+.+#+#####+@ . &$@$&@%&*$@@$$%$&%$%$$%%$&***%&&%%&%@& #+  +####+########++%@@ ++ +.++@ +++#",
"&$$ .#####..#######+ .. &%$@$$$$%%&*$%&$$%&%%*$%$=*&%=*%=%%$@%###@$+###++#########+$&$  .  ... .++++"};
