/* XPM */
static char * G:\7s_matrix\uwe_color32_xpm[] = {
"100 100 32 1",
" 	c #1A1715",
".	c #181C22",
"+	c #282D36",
"@	c #392E2C",
"#	c #403228",
"$	c #2A3D5C",
"%	c #5C413D",
"&	c #494F52",
"*	c #3C567E",
"=	c #4A583E",
"-	c #6B4E46",
";	c #605546",
">	c #3F6295",
",	c #7B5C53",
"'	c #516B91",
")	c #5E6D71",
"!	c #3D79C2",
"~	c #4985CD",
"5	c #7B8682",
"]	c #A38171",
"^	c #638FC1",
"/	c #7990A9",
"(	c #5699DE",
"_	c #C3A28E",
"6	c #95AEAA",
"<	c #7ABAEE",
"[	c #97CAEB",
"4	c #DAC3B8",
"|	c #B3D2D0",
"1	c #E7CBB2",
"2	c #C7D4E3",
"3	c #EBF1F4",
"!!!!!!!!!!!!!!!!!!!!!!!!!!!!!!!!!!!!!!!!!!!!!!!!!!!!!!!!!!!!!!!!!!!!!!!!!!!!!!!!!!!!!!!!!!!!!!!!!!!!",
"!!!!!!!!!!!!!!!!!!!!!!!!!!!!!!!!!!!!!!!!!!!!!!!!!!!!!!!!!!!!!!!!!!!!!!!!!!!!!!!!!!!!!!!!!!!!!!!!!!!!",
"!!!!!!!!!!!!!!!!!!!!!!!!!!!!!!!!!!!!!!!!!!!!!!!!!!!!!!!!!!!!!!!!!!!!!!!!!!!!!!!!!!!!!!!!!!!!!!!!!!!!",
"!!!!!!!!!!!!!!!!!!!!!!!!!!!!!!!!!!!!!!!!!!!!!!!!!!!!!!!!!!!!!!!!!!!!!!!!!!!!!!!!!!!!!!!!!!!!!!!!!!!!",
"!!!!!!!!!!!!!!!!!!!!!!!!!!!!!!!!!!!!!!!!!!!!!!!!!!!!!!!!!!!!!!!!!!!!!!!!!!!!!!!!!!!!!!!!!!!!!!!!!!!!",
"!!!!!!!!!!!!!!!!!!!!!!!!!!!!!!!!!!!!!>>>*>>>>>>>>>>>>>!!!!!!!!!!!!!!!!!!!!!!!!!!!!!!!!!!!!!!!!!!!!!!",
"!!!!!!!!!!!!!!!!!!!!!!!!!!!!!!!!!!!>>******'*>>>>''>>>>>>!!!!!!!!!!!!!!!!!!!!!!!!!!!!!!!!!!!!!!!!!!!",
"!!!!!!!!!!!!!!!!!!!!!!!!!!!!!!!!!>>>*'*>>>>>*''''''''''>>>>!!!!!!!!!!!!!!!!!!!!!!!!!!!!!!!!!!!!!!!!!",
"!!!!!!!!!!!!!!!!!!!!!!!!!!!!!!!!>>>*****>>'>*''''''''''>>'>>>!!!!!!!!!!!!!!!!!!!!!!!!!!!!!!!!!!!!!!!",
"~~~!!!!!!!!!!!!!!!!!!!!!!!!!!!>>'*********''>>>>>*>''''>''*>>!!!!!!!!!!!!!!!!!!!!!!!!!!!!!!!!!!!!!!!",
"!!~!~!!!!~!!!!!!!!!!!!!!!!!!!>*>>>*************''****'''''''''^!!!!!!!!!!!!!!!!!!!!!!!!!!!!!!!!!!!!!",
"~~~~~~~!~~~~~~~!~~!~~!!!!!!!>>*'*'***************'****'''''''>'>!!!!!!!!!!!!!!!!!!!!!!!!!!!!!!!!!!!!",
"~~~~~~~~~~~~~~~~~~!~~!!!!~~''*'***$*$$$*****'*************'**'>>>>!!!!!!!!!!!!!!!!!!!!!!!!!!!!!!!!!!",
"~~~~~~~~~~~~~~~~~~~~~~!!~~^''**$$$$$$$$$$*******'****>******>>*>>>>!!!!!!!!!!!!!!!!!!!!!!!!!!!!!!!!!",
"~~~~~~~~~~~~~~~~~~~~~~~~~^'***$$$$$$$$$$$$******'*>**************>>>~!!~!!!!!!!!!!!!!!!!!!!!!!!!!!!!",
"~~~~~~~~~~~~~~~~~~~~~~~~^>****$$$$$$$$$$$$***********************>>>!~~~~~~~~~!!~~~!!!!!!~!!~!!!!!!!",
"~~~~~~~~~~~~~~~~~~~~~~~~>*****************************************>>>~~~!~~~~~~~~~~~!!!!~!~!!!!!~~~~",
"~~~~~~~~~~~~~~~~~~~~~~~!***$***>******>>***************************>>>~~~~~~~~~~~~~~~~~~~~~~~~~~~~~~",
"~~~~~~~~~~~~~~~~~~~~~^~>$$$$$*********************************$$****>>~~~~~~~~~~~~~~~~~~~~~~~~~~~~~~",
"~~~~~~~~~~~~~~~~~~!!~^^*$$$$$$$**$$$$$**********************$*$$$$***>>~~~~~~~~~~~~~~~~~~~~~~~~~~~~~",
"~~~~~~~~~~~~~~~~~~!~~~>$$+$$$$$$$+++++$$$*******************$$$$$$$***>~~~~~~~~~~~~~~~~~~~~~~~~~~~~~",
"~~~~~~~~~~~~~~~~~~^^~>'$$$$+++.......+$$$$**********************$$$$$$*~~~~~~~~~~~~~~~~~~~~~~~~~~~~~",
"~~~~(~~~~~~~~~~~~~^^!*$$$$$++..........++$$*******$$***$$$$******$$$$$$>~~~~~~~~~~~~~~~~~~~~~~~~~~~~",
"~~~~~~~~~~~~~~~~~~>^'..$+$+.... ..     ..+$$$$$$$$$$**$$$$$$$****$$$$$$*~~~~~~~~~~~~~~~~~~~~~~~~~~~~",
"~~~~~~~~~~~~~~~~^^!'$..+++..... ......  ..+$$$$$$$$$$$$$**********$$$$'^!~~~~~~~~~~~~~~~~~~~~~~~~~~~",
"~~~~~~~~~~~^^^~~^^^'+..++........ ..++....+++$$$$$$$$**************$$$*/~~~~~~~~~~~~~~~~~~~~~~~~~~~~",
"~~~~~~~~~~^^^^^~^^^^+++... ........+$$$$+++++$$$$********************$$*!~~~~~~~~~~~~~~~~~~~~~~~~~~~",
"(~((~~((~^^^^~^^^^^^+++... .....+$$$$$$$$$$$$$********$$$$$$$$$$$$$***$$^(~~~~~~~~~~~~~~~~~~~~~~~~~~",
"(((^~~(^^^!^^~^^////&+.........++++++++$$$$$$$$$$$$$$$****''*'****$$$**$!~~~~~~~~~~~~~~~~~~~~~~~~~~~",
"((^~^^^^^^^^^^^/)///&&@.....+++++.....++++$$$$$$**'*****'''''''''****$$$>^^~~~~~~~~~~~~~~~~~~~~~~~~~",
"((^^^^^^'''''^')5///&@@+...+&++....+++++$$$$*******>>>>''''''''''*****$$*^^^~~(~~~~~~~~~~~~~~~~~~~~~",
"((^^^^^^///))/))5//)@@++.+++.+++++++$$$$$$$$***********''*''''''''>>*****^/^~~~~~~~~~~~~~~~~~~~~~~~~",
"(((^^(^^/55)))&&)/5)+@&+..+++++ ++$$$$$$$$$$$**************''''''''>''****'^^(~~~((((((((~~~~~~~~~~~",
"^^^//^^/5;))5;%%)/5)@ +. ++@.@@#@++$$$$$$$$$*$*************'''''''''''>>***>^((~~((((((((((((((((~((",
"^^/////5,;&;]],%)))5% @  @@@@#;--@++$$$$$$$$$**************'''''''''''>>'***>^((((((((((((((((((((((",
"(^^^/))55;;,_],-&&)),;@@@#@@#,]],%@++$$$$$$$$$$$$*************''''''''**$$$$$*^^((((((((((((((((((((",
"((((^/5);,;;,,###@&;-;##@@  ##--%%%#++$$$$$$$$$$$************'''''*$$+.    ...$'^(((((((((((((((((((",
"(((((^5;;;;%&&&@###@;-;#    @#%%%%%%#+$$$$$$$$$$$$$$$********>**$++   .@       +*(((((((((((((((((((",
"(((((^/;;;;;##@@### @###@   @@#%%%###@++$$$$$$$$$$$$$$$******$$+.      +@@     .+'^(^((((((((((((~((",
"((((((/5,;;;;#@#;;#@###       @@       ++$$$$$$$$$$$$$$***$$+++          @.   ...+/^^^((((((((((((((",
"(((((^/5];;;###%]_]#%##@    @@%%%%%#@###@+++$$$$$$$$$$$$$+.                .  ..  &/^^((((((((((((((",
"(((((^/5];#####;;_]],%%##@  @#%%%%%%%%%##@@++$$$$$$$++.                  . .   . .$^^((((((((((((^')",
"((((^/)55;;;;;;;,,]]]--##@@@@#%%%%-%%%%###@@.........       @               ++.. .+'((((((((((((')==",
"((((^&;55,;;];;;;;;;-%#####@@#%%-----%%###@@                   .          @&)/$.  .'(((((((((((/)===",
"((((^;;);,,,;;#;;;,%#######@@#%%-----%%%@@@@                         @;,]_146/^$..$'(((^((((((^)====",
"((((^;&);--;;;@###%-%######@@%%%---%%%%%@@@@                     @#,_411111144//'*>^(^'//^/^^^'&&&&)",
"((((^&&)),;;;#@####%#-###%#%#%%%--%%-%%%%@@@                  @@#,_4111111111114/^^<^/)=&)=)//)===&&",
"((((^&&)&;;;;;#@ ####%,#%%%%#%%%---%%%%%%%%@@            @@@@@@%]41111__1___1111445//)======&)======",
"((((^&&)&%####@   ####-%-%-%%%%%%--%%%%%%%%%@@         @#@@%%%-]_____]]]]]]]__111115/==;=====)======",
"(((((*))&&@@@@@@   ##%-,---%%%--%--------%%%%%@@@@   @@@@@@-,,____]]]]]]_______111114];;============",
"((((<'&)&&@@@@      @###%%--%%-------------%%%%#@#@@@@@%%@@-,]]]]]],,,]1111111111111111_]===========",
"(((((/&&&@@@@@  @@@  @###%--%%-------------%%%%%%%#@@@@@@@%%,,,,,,,,_11111111111111111111_;;;===##;;",
"(((((/)&&@@@  @####  @#%%--------------------%%%%%%@@@@@@%%%%%--%-]11111111111111111111111_,;;&&#&;#",
"(((^^//)&@+@@@##;;##  #%----------------------%%%%%@@@@@%%%&@%%%,_4111114__11111111111111111];;;####",
"(<<^/''/)@&@@@##;;;#  #%---------------,-,------%%%@@@@%%%&&&%%]111111___]]]_____111111111111_;=====",
"(<<^/)&)&@&+@@##;;;#  @%--------------,--,------%%%@@@%%%&&&&%]111____]]]]]]]]]]___11111111111_,;===",
"<<<^/)+&&@@@@@@@### @ @--,------------,,-,------%%%@@@%&++&&%]_11__]]]]]]]]]_]]]]__1111111111111];#=",
"<<<<'/&@@@@##@ @@@ @@  #%-#---------------,-----%%@@@%%+++&&]____]]]]]]]]_111_4411111111111111111_-;",
"<<<<^'/&++@##  .   @@     #---------------------%%@@%%&$$&&____]],]]],,_111114331111111111111111114]",
"<<<<<^^'')&@@@    @#@     #%--------------------%%%%%&&&&&_4__]]]],,,]411111142341111111111111111111",
"<<<<<^^^^'&+@@   @&#@     @%--------------------%%%%%&&&&54__]]]],-,_4111111145_41111111111111111111",
"<<<<<<^''*&&@@   @@@ @    @%--------------------%%%-)&&&&,___],,,-]41144_]____]]__111111111111111111",
"<<<<<<<<^^/)&. @@@@@  @    %--,,-,,--,---------%%%%,)&&&&&]]],,,-]__1114__]]_]]]]___1111111111111111",
"<<<<<<<<<<^^/+@@@@@@@@@    %--,,-,------------%%%%%-&&&)))5,,-%;]_______]]]]]]]]]]]]__11111111111111",
"<<<<<<<<<<<^/&@@@@@@@@@    #%----,-,,----,-----%%--%-&))))==&&=]4__]]]]],,]],,--,]]]_111111111111111",
"<<<<<<<<<<<^/&@@@#;##@     @%--,-,-,,,,,,,,-----%%-%%&&)&&&&&;_____]]]],,,,%-#@#-]_11111111111111111",
"<<<<<<<<<<<^/)&@@###@@     @%--,,,,,,,,,,,-----%%%%%%@&=&&&&;____]],,,,,,-###;]_11111111111111111111",
"<<<<<<<<<<<</)&@#%&@@@     @%-,,,,,,,-,--,,----%%%%%%@@&&&=544__]],,,,-%##;;]111111111111__111111111",
"<<<<<<<<<<<</)&@@@@@@      @%-,,,,,,,,,,-------%%%%%%%@@&&=_4__]],,-####;;_41111111111________111111",
"<<<<<<<<<[<[/)##@@@@@      @%-,,,,,,,,,,---,--%%%--%%%%%@&=5__],,,%@@&=;_1111111__________]________1",
"[[[[[[[[[<^<</#@@@@     @  @%-,,,,,,,,,,-----%%%%----%%%%@&;]],--%@##;]411_11_____]]]]]__]]]]]______",
"[[[[[[[[[[[[[/&@@@@ @@@@   @%-,,,,,,,,,,------%%%------%%%&&;;-;#@#;]4111______]]]]]]]]]]]]]]]]]]]__",
"[[[[[[[[[[[[[/&@@@+@#++@@ @#--,,,,,,,,,,-----%%%%%%------%%&)&&&&&]44111___]]]]]]]]55,,,],]]]]]]]]__",
"[[[[[[[[[[[[[[/&#;@+@++@@ @%--,,,,,,,,,,,-----%%%%%%%%%%%%%@&&&&=]111______]]]]]555))&&)555,,]5]]]]_",
"[[[[[[[[[[[[[[[/&#&&&&&@@ @%--,,,,,,,,,,,-----%%%%%%%%%##%%@&&)==]______]]]]]]55)))))))&&);55555]55]",
"[[[[[[[[[[[[[[[[)&)/)&&@@ @%-,,,,,,,,,,,,--------%%%%%%%#%@%%&&)=,]__]]],,,;;))))////))))55555555555",
"[[[[[[[[[[[[[[[[6//'&&&&@ @%-,,,,,,,,,,,,--------%%%%%%%%%%%%&&&)&,,,,,-;&&&)))56|32||66))6555555555",
"[[[[[[[[[[[[[[65))'**&&@@ @%--,,,,,,,,,,,---------%%%%%%%%%%-))&))&;&&&&&&)))/6|||33||||652365555555",
"[[[[[[[[[[[[[5=='>>'&&&&@@@%--,,,,,,,,,,,---------%%%%%%%%%-,)@&&)&&&&)&))))56||||33||||||6332//5555",
"[[[[[[655))$$+$''!'')))& @@%---,,,,,,,,,,,,-------%%%%%%-%-,5;@&&&)&&&&))))566||||33||||||6|33325)55",
"666665===@++++*!!^'''))&@##%---,,,,,,,,,,,----;;-%%%%%%--,,,,&&)&&&)&&&&)))6666||||||||6666633336**&",
"5======@.+$+++>!~^^''')&@#%%--,,,,,,,,,,,--------------,,,,,,++)&6&)&&&&))566666||||6655555623332'/5",
"====)&...++++$!!^///)))@@@%%--,--,,,,,,------,------------,,%.+&)25&)&))))556566666555))))))63333333",
"=&5)$+++.++++*!^[2/255)+@#%---,,,,-,-,,-----------%%%%%%-,,-@.++)23)))))))55666655))))))))))|3333333",
"&&&+++..++++$*>[2222/5) @#%--,,,,,---------------%%%%%%--,-@++++)232)))))))5665)))))))))))))23333333",
"))+.....++++$><[2/2265& @#%---,,,,,-------------%%%%%%---%@+++++)2336)))))))5))))))))))))))/33333333",
"+.......++++$><[//236)&  @@%----,,,,-----------%%%%----%@@.+++++&23335))))))))5))))))))))))233333333",
"........++++$/2222236)&...+@#%%----,---------%%%----%%@@+.++++++&/3332))))))))5)))))))))))6333333333",
"+.+.....++++'222323325&.....@@@%%%--,-------%%%%--%@@ ....++++++&)23332)/))))))))))))))))62333333333",
"+...  ..++++/33333333/+......+++@@%%-----%%%%%%#@@.......+++++++&)233332))))5)))))))))))/22333333333",
"&&+.  ..+++$/23333322/+...........@@@#%%%#@@@@ .........++.+++++&&/333336)))))))))))))))/22333333333",
"&++.  ..+++*/233333226+..............       ...........++.++++++&$)2333335))))))))))))))/22333333333",
"&+..  ..++$>^/23333222&..+............................+...++++++&$$6333332))))))))55))&&)62323222333",
"+...  ..++$~^//2333622&..++..............................+++++++&$$/33333326//662335)&&&))2222222333",
"+.+.....++'~^/'/232222&..++................. ...........+++++++++$$)2333333333333332'*&&&)/222222233",
"++&.+++++$'~^/'//2/232&++.+............................+++++++++&+$'6333333333333332)))&&&)/22222223",
"&++++&&&+$^^/''/[/2233&++++.++.........................+++++++++&+$'/333333333333333/)))&&)/22222232",
"&+&+&&&&&*^///'///2233&++++++..........................+++++++++&+$*/2333333333333336)))&&)//2222222",
")+++++&)&'^^''/[/22333&+++++++.........................+++++++++&++$)2333333333333332)))&&&)/2222332",
")&++&&&)&'^^^^/2222333&++++++++.......................+++++++++++++&)/3333333333333335)))&&)/2222332"};
